<?xml version="1.0" encoding="UTF-8"?>
<!DOCTYPE svg PUBLIC "-//W3C//DTD SVG 1.1//EN" "http://www.w3.org/Graphics/SVG/1.1/DTD/svg11.dtd">
<!-- Creator: CorelDRAW 2019 (64-Bit) -->
<svg xmlns="http://www.w3.org/2000/svg" xml:space="preserve" width="10.6667in" height="2.09999in" version="1.1" style="shape-rendering:geometricPrecision; text-rendering:geometricPrecision; image-rendering:optimizeQuality; fill-rule:evenodd; clip-rule:evenodd"
viewBox="0 0 10666.66 2099.99"
 xmlns:xlink="http://www.w3.org/1999/xlink"
 xmlns:xodm="http://www.corel.com/coreldraw/odm/2003">
 <defs>
  <style type="text/css">
   <![CDATA[
    .str0 {stroke:white;stroke-width:47.83;stroke-miterlimit:2.61313}
    .str1 {stroke:white;stroke-width:54.2;stroke-miterlimit:2.61313}
    .fil0 {fill:none}
    .fil2 {fill:none;fill-rule:nonzero}
    .fil3 {fill:#F1B70D}
    .fil4 {fill:white}
    .fil6 {fill:#E6E6E6;fill-rule:nonzero}
    .fil5 {fill:#F1B70D;fill-rule:nonzero}
    .fil1 {fill:white;fill-rule:nonzero}
   ]]>
  </style>
 </defs>
 <g id="Layer_x0020_1">
  <metadata id="CorelCorpID_0Corel-Layer"/>
  <g id="_2473064607456">
   <g id="_2020308484784">
    <path class="fil0 str0" d="M603.26 391.52l537.48 0c79.69,0 144.3,64.62 144.3,144.3l-0 363.29c0,79.68 -64.61,144.3 -144.3,144.3l-537.49 0c-79.68,0 -144.3,-64.62 -144.3,-144.3l-0.01 -363.29c0.01,-79.68 64.63,-144.3 144.31,-144.3z"/>
    <g>
     <path class="fil1" d="M986.47 190.92l-47.83 0 0 0 -0.08 -3.17 -0.24 -3.11 -0.39 -3.06 -0.53 -3 -0.68 -2.94 -0.82 -2.89 -0.96 -2.83 -1.09 -2.76 -1.21 -2.69 -1.35 -2.63 -1.47 -2.56 -1.59 -2.48 -1.69 -2.38 -1.82 -2.31 -1.92 -2.22 -2.02 -2.11 -2.12 -2.02 -2.21 -1.92 -2.3 -1.81 -2.39 -1.7 -2.47 -1.59 -2.54 -1.46 -2.61 -1.34 -2.69 -1.22 -2.76 -1.09 -2.81 -0.95 -2.89 -0.82 -2.93 -0.68 -2.98 -0.53 -3.05 -0.39 -3.09 -0.24 -3.15 -0.08 0 -47.65 5.57 0.14 5.52 0.42 5.44 0.69 5.37 0.96 5.27 1.22 5.16 1.46 5.07 1.71 4.94 1.95 4.82 2.18 4.69 2.4 4.56 2.63 4.4 2.82 4.25 3.02 4.11 3.22 3.94 3.41 3.77 3.59 3.59 3.78 3.4 3.93 3.22 4.09 3.04 4.27 2.82 4.41 2.61 4.54 2.4 4.69 2.18 4.82 1.94 4.94 1.71 5.05 1.46 5.15 1.22 5.26 0.96 5.35 0.69 5.43 0.42 5.5 0.14 5.56 0 0 -0.02 0.04zm-108.68 108.59l0 -47.65 0 0 3.15 -0.08 3.09 -0.24 3.05 -0.39 2.98 -0.53 2.93 -0.68 2.88 -0.81 2.81 -0.96 2.76 -1.09 2.68 -1.21 2.62 -1.35 2.55 -1.46 2.46 -1.58 2.39 -1.7 2.31 -1.81 2.22 -1.92 2.11 -2.02 2.02 -2.11 1.92 -2.22 1.81 -2.31 1.7 -2.39 1.58 -2.46 1.47 -2.56 1.35 -2.63 1.21 -2.69 1.09 -2.77 0.96 -2.83 0.82 -2.89 0.68 -2.94 0.53 -2.99 0.39 -3.06 0.24 -3.11 0.08 -3.17 47.83 0 -0.14 5.56 -0.42 5.5 -0.69 5.43 -0.96 5.35 -1.22 5.26 -1.46 5.16 -1.71 5.05 -1.94 4.93 -2.18 4.83 -2.4 4.68 -2.61 4.54 -2.83 4.41 -3.02 4.25 -3.22 4.1 -3.41 3.93 -3.59 3.78 -3.78 3.59 -3.93 3.41 -4.1 3.22 -4.26 3.03 -4.41 2.83 -4.56 2.61 -4.69 2.4 -4.83 2.19 -4.94 1.94 -5.06 1.71 -5.17 1.47 -5.27 1.22 -5.37 0.96 -5.44 0.69 -5.52 0.42 -5.57 0.14 0 0 0.03 0.02zm-108.68 -108.59l47.83 0 0 0 0.08 3.17 0.24 3.11 0.39 3.06 0.53 2.99 0.68 2.94 0.82 2.9 0.95 2.82 1.09 2.76 1.22 2.7 1.34 2.62 1.46 2.55 1.59 2.47 1.7 2.4 1.81 2.3 1.92 2.21 2.02 2.12 2.11 2.02 2.22 1.92 2.3 1.81 2.38 1.69 2.47 1.58 2.54 1.46 2.63 1.35 2.68 1.21 2.76 1.09 2.82 0.96 2.87 0.81 2.93 0.68 2.98 0.53 3.05 0.39 3.09 0.24 3.15 0.08 0 47.65 -5.57 -0.14 -5.52 -0.42 -5.44 -0.69 -5.37 -0.96 -5.27 -1.22 -5.17 -1.47 -5.06 -1.71 -4.94 -1.94 -4.83 -2.19 -4.69 -2.4 -4.55 -2.61 -4.41 -2.83 -4.27 -3.04 -4.1 -3.22 -3.93 -3.4 -3.78 -3.59 -3.59 -3.77 -3.41 -3.94 -3.22 -4.11 -3.02 -4.24 -2.82 -4.4 -2.62 -4.55 -2.4 -4.69 -2.17 -4.81 -1.95 -4.94 -1.71 -5.06 -1.46 -5.15 -1.22 -5.26 -0.96 -5.35 -0.69 -5.43 -0.42 -5.5 -0.14 -5.56 0 0 0.05 0.01zm108.68 -108.59l0 47.65 0 0 -3.15 0.08 -3.09 0.24 -3.05 0.39 -2.98 0.53 -2.93 0.68 -2.88 0.82 -2.81 0.95 -2.75 1.08 -2.69 1.22 -2.62 1.34 -2.54 1.46 -2.48 1.59 -2.39 1.69 -2.3 1.81 -2.22 1.92 -2.12 2.02 -2.02 2.12 -1.92 2.22 -1.81 2.3 -1.7 2.39 -1.59 2.48 -1.46 2.55 -1.34 2.62 -1.22 2.7 -1.09 2.76 -0.96 2.83 -0.82 2.89 -0.68 2.94 -0.53 3 -0.39 3.06 -0.24 3.11 -0.08 3.17 -47.83 0 0.14 -5.56 0.42 -5.5 0.69 -5.43 0.96 -5.35 1.22 -5.26 1.46 -5.15 1.7 -5.06 1.95 -4.94 2.17 -4.8 2.4 -4.69 2.62 -4.55 2.81 -4.4 3.03 -4.26 3.22 -4.1 3.41 -3.93 3.59 -3.77 3.77 -3.59 3.93 -3.41 4.11 -3.22 4.26 -3.03 4.4 -2.82 4.56 -2.63 4.7 -2.4 4.81 -2.17 4.95 -1.96 5.07 -1.71 5.16 -1.46 5.27 -1.22 5.37 -0.96 5.44 -0.69 5.52 -0.42 5.57 -0.14 0 0 -0.01 -0.02z"/>
    </g>
    <g>
     <path class="fil1" d="M806.04 632.31l-47.83 0 0 0 -0.1 -4.04 -0.3 -3.96 -0.5 -3.9 -0.69 -3.85 -0.86 -3.76 -1.05 -3.69 -1.23 -3.63 -1.39 -3.53 -1.56 -3.44 -1.72 -3.36 -1.88 -3.26 -2.03 -3.17 -2.17 -3.06 -2.31 -2.94 -2.45 -2.82 -2.59 -2.71 -2.71 -2.59 -2.82 -2.45 -2.94 -2.31 -3.05 -2.17 -3.17 -2.03 -3.26 -1.88 -3.35 -1.71 -3.44 -1.56 -3.52 -1.39 -3.61 -1.22 -3.68 -1.05 -3.74 -0.86 -3.83 -0.69 -3.89 -0.5 -3.95 -0.3 -4.03 -0.1 0 -47.65 6.44 0.17 6.38 0.48 6.3 0.8 6.19 1.1 6.1 1.41 5.98 1.7 5.83 1.98 5.72 2.25 5.57 2.52 5.43 2.78 5.26 3.03 5.09 3.26 4.93 3.5 4.75 3.73 4.56 3.94 4.35 4.15 4.15 4.35 3.94 4.56 3.73 4.74 3.5 4.92 3.26 5.09 3.02 5.26 2.77 5.41 2.52 5.57 2.25 5.72 1.97 5.82 1.7 5.97 1.41 6.09 1.1 6.17 0.8 6.28 0.48 6.37 0.17 6.43 0 0 0.01 0.03zm-125.63 125.54l0 -47.65 0 0 4.03 -0.1 3.95 -0.3 3.89 -0.5 3.83 -0.69 3.74 -0.86 3.68 -1.05 3.61 -1.22 3.52 -1.39 3.44 -1.56 3.35 -1.71 3.26 -1.88 3.17 -2.03 3.05 -2.17 2.94 -2.31 2.82 -2.45 2.71 -2.59 2.59 -2.71 2.45 -2.82 2.31 -2.94 2.17 -3.06 2.03 -3.17 1.88 -3.26 1.71 -3.35 1.56 -3.45 1.39 -3.53 1.23 -3.62 1.05 -3.69 0.86 -3.76 0.69 -3.85 0.5 -3.9 0.3 -3.96 0.1 -4.04 47.83 0 -0.17 6.43 -0.48 6.37 -0.8 6.28 -1.1 6.18 -1.41 6.09 -1.7 5.97 -1.97 5.83 -2.25 5.71 -2.52 5.57 -2.78 5.42 -3.03 5.26 -3.26 5.08 -3.5 4.92 -3.73 4.74 -3.94 4.56 -4.15 4.35 -4.35 4.15 -4.56 3.94 -4.75 3.73 -4.93 3.5 -5.09 3.26 -5.26 3.03 -5.43 2.78 -5.57 2.52 -5.72 2.25 -5.83 1.98 -5.98 1.7 -6.1 1.41 -6.19 1.1 -6.3 0.8 -6.38 0.48 -6.44 0.17 0 0 0.02 0.01zm-125.63 -125.54l47.83 0 0 0 0.1 4.04 0.3 3.96 0.5 3.9 0.69 3.85 0.86 3.76 1.05 3.69 1.23 3.62 1.39 3.53 1.56 3.45 1.71 3.35 1.88 3.26 2.03 3.17 2.17 3.06 2.31 2.94 2.45 2.83 2.58 2.71 2.71 2.59 2.83 2.45 2.94 2.31 3.06 2.17 3.17 2.03 3.25 1.87 3.35 1.71 3.44 1.56 3.52 1.39 3.61 1.22 3.68 1.05 3.74 0.86 3.84 0.69 3.89 0.5 3.95 0.3 4.02 0.1 0 47.65 -6.44 -0.17 -6.38 -0.48 -6.3 -0.8 -6.19 -1.1 -6.1 -1.41 -5.98 -1.7 -5.83 -1.98 -5.72 -2.25 -5.57 -2.52 -5.43 -2.78 -5.27 -3.03 -5.09 -3.26 -4.92 -3.5 -4.75 -3.73 -4.55 -3.94 -4.36 -4.15 -4.15 -4.35 -3.94 -4.55 -3.73 -4.74 -3.5 -4.92 -3.26 -5.08 -3.03 -5.26 -2.78 -5.42 -2.52 -5.57 -2.25 -5.71 -1.97 -5.83 -1.7 -5.97 -1.41 -6.09 -1.1 -6.18 -0.8 -6.28 -0.48 -6.37 -0.17 -6.43 0 0 0.04 -0.02zm125.63 -125.54l0 47.65 0 0 -4.02 0.1 -3.95 0.3 -3.89 0.5 -3.84 0.69 -3.74 0.86 -3.68 1.05 -3.61 1.22 -3.52 1.39 -3.44 1.56 -3.35 1.71 -3.25 1.87 -3.17 2.03 -3.06 2.17 -2.94 2.31 -2.83 2.45 -2.71 2.59 -2.58 2.71 -2.45 2.83 -2.31 2.94 -2.17 3.06 -2.03 3.17 -1.88 3.26 -1.72 3.36 -1.56 3.44 -1.39 3.53 -1.23 3.63 -1.05 3.69 -0.86 3.76 -0.69 3.85 -0.5 3.9 -0.3 3.96 -0.1 4.04 -47.83 0 0.17 -6.43 0.48 -6.37 0.8 -6.28 1.1 -6.17 1.41 -6.09 1.7 -5.97 1.97 -5.82 2.25 -5.72 2.52 -5.57 2.77 -5.41 3.02 -5.26 3.26 -5.09 3.5 -4.92 3.73 -4.74 3.94 -4.55 4.15 -4.35 4.36 -4.15 4.55 -3.94 4.75 -3.73 4.92 -3.5 5.09 -3.26 5.27 -3.03 5.43 -2.78 5.57 -2.52 5.72 -2.25 5.83 -1.98 5.98 -1.7 6.1 -1.41 6.19 -1.1 6.3 -0.8 6.38 -0.48 6.44 -0.17 0 0 -0 -0.04z"/>
    </g>
    <g>
     <path class="fil1" d="M1199.02 632.31l-47.83 0 0 0 -0.1 -4.04 -0.3 -3.96 -0.5 -3.9 -0.69 -3.85 -0.86 -3.76 -1.05 -3.69 -1.23 -3.63 -1.39 -3.53 -1.56 -3.44 -1.72 -3.37 -1.88 -3.26 -2.02 -3.16 -2.17 -3.06 -2.31 -2.95 -2.45 -2.83 -2.59 -2.72 -2.7 -2.58 -2.83 -2.45 -2.94 -2.31 -3.06 -2.17 -3.17 -2.03 -3.25 -1.87 -3.35 -1.71 -3.44 -1.56 -3.52 -1.39 -3.61 -1.22 -3.68 -1.05 -3.74 -0.86 -3.83 -0.69 -3.89 -0.5 -3.95 -0.3 -4.03 -0.1 0 -47.65 6.44 0.17 6.38 0.48 6.3 0.8 6.19 1.1 6.1 1.41 5.98 1.7 5.83 1.98 5.72 2.25 5.57 2.52 5.43 2.78 5.27 3.03 5.09 3.26 4.92 3.5 4.74 3.73 4.56 3.94 4.36 4.16 4.15 4.35 3.94 4.55 3.72 4.74 3.5 4.92 3.27 5.1 3.02 5.26 2.77 5.41 2.52 5.57 2.25 5.72 1.97 5.82 1.7 5.97 1.41 6.09 1.1 6.17 0.8 6.28 0.48 6.37 0.17 6.43 0 0 -0.01 0.03zm-125.63 125.54l0 -47.65 0 0 4.03 -0.1 3.95 -0.3 3.89 -0.5 3.83 -0.69 3.74 -0.86 3.68 -1.05 3.61 -1.22 3.52 -1.39 3.44 -1.56 3.35 -1.71 3.25 -1.87 3.17 -2.03 3.06 -2.17 2.94 -2.31 2.83 -2.45 2.7 -2.58 2.59 -2.72 2.45 -2.83 2.31 -2.95 2.18 -3.06 2.02 -3.15 1.87 -3.26 1.72 -3.36 1.56 -3.45 1.39 -3.53 1.23 -3.62 1.05 -3.69 0.86 -3.76 0.69 -3.85 0.5 -3.9 0.3 -3.96 0.1 -4.04 47.83 0 -0.17 6.43 -0.48 6.37 -0.8 6.28 -1.1 6.18 -1.41 6.09 -1.7 5.97 -1.97 5.83 -2.25 5.71 -2.52 5.57 -2.77 5.41 -3.02 5.26 -3.27 5.1 -3.5 4.92 -3.72 4.74 -3.94 4.55 -4.15 4.35 -4.36 4.16 -4.56 3.94 -4.74 3.73 -4.92 3.5 -5.09 3.26 -5.27 3.03 -5.43 2.78 -5.57 2.52 -5.72 2.25 -5.83 1.98 -5.98 1.7 -6.1 1.41 -6.19 1.1 -6.3 0.8 -6.38 0.48 -6.44 0.17 0 0 0.01 -0.01zm-125.63 -125.54l47.83 0 0 0 0.1 4.04 0.3 3.96 0.5 3.9 0.69 3.85 0.86 3.76 1.05 3.69 1.23 3.62 1.39 3.53 1.56 3.45 1.72 3.36 1.87 3.26 2.02 3.15 2.18 3.06 2.31 2.95 2.45 2.83 2.59 2.72 2.7 2.58 2.83 2.45 2.94 2.31 3.06 2.17 3.17 2.03 3.25 1.87 3.35 1.71 3.44 1.56 3.52 1.39 3.61 1.22 3.68 1.05 3.74 0.86 3.83 0.69 3.89 0.5 3.95 0.3 4.03 0.1 0 47.65 -6.44 -0.17 -6.38 -0.48 -6.3 -0.8 -6.19 -1.1 -6.1 -1.41 -5.98 -1.7 -5.83 -1.98 -5.72 -2.25 -5.57 -2.52 -5.43 -2.78 -5.27 -3.03 -5.09 -3.26 -4.92 -3.5 -4.74 -3.73 -4.56 -3.94 -4.36 -4.16 -4.15 -4.35 -3.94 -4.55 -3.72 -4.74 -3.5 -4.92 -3.27 -5.1 -3.02 -5.26 -2.77 -5.41 -2.52 -5.57 -2.25 -5.71 -1.97 -5.83 -1.7 -5.97 -1.41 -6.09 -1.1 -6.18 -0.8 -6.28 -0.48 -6.37 -0.17 -6.43 0 0 0.01 0.01zm125.63 -125.54l0 47.65 0 0 -4.03 0.1 -3.95 0.3 -3.89 0.5 -3.83 0.69 -3.74 0.86 -3.68 1.05 -3.61 1.22 -3.52 1.39 -3.44 1.56 -3.35 1.71 -3.25 1.87 -3.17 2.03 -3.06 2.17 -2.94 2.31 -2.83 2.45 -2.7 2.58 -2.59 2.72 -2.45 2.83 -2.31 2.95 -2.17 3.06 -2.02 3.16 -1.88 3.26 -1.72 3.37 -1.56 3.44 -1.39 3.53 -1.23 3.63 -1.05 3.69 -0.86 3.76 -0.69 3.85 -0.5 3.9 -0.3 3.96 -0.1 4.04 -47.83 0 0.17 -6.43 0.48 -6.37 0.8 -6.28 1.1 -6.17 1.41 -6.09 1.7 -5.97 1.97 -5.82 2.25 -5.72 2.52 -5.57 2.77 -5.41 3.02 -5.26 3.27 -5.1 3.5 -4.92 3.72 -4.74 3.94 -4.55 4.15 -4.35 4.36 -4.16 4.56 -3.94 4.74 -3.73 4.92 -3.5 5.09 -3.26 5.27 -3.03 5.43 -2.78 5.57 -2.52 5.72 -2.25 5.83 -1.98 5.98 -1.7 6.1 -1.41 6.19 -1.1 6.3 -0.8 6.38 -0.48 6.44 -0.17 0 0 -0.01 -0.03z"/>
    </g>
    <g>
     <path class="fil1" d="M365.26 1142.16l-47.83 0 0 0 -0.09 -3.85 -0.29 -3.76 -0.48 -3.72 -0.65 -3.67 -0.82 -3.58 -1 -3.51 -1.16 -3.44 -1.33 -3.36 -1.49 -3.29 -1.63 -3.19 -1.79 -3.1 -1.93 -3.01 -2.07 -2.92 -2.2 -2.8 -2.33 -2.69 -2.46 -2.58 -2.58 -2.46 -2.69 -2.33 -2.81 -2.21 -2.9 -2.06 -3 -1.92 -3.11 -1.79 -3.19 -1.63 -3.27 -1.48 -3.35 -1.32 -3.43 -1.16 -3.5 -1 -3.57 -0.82 -3.65 -0.65 -3.7 -0.47 -3.75 -0.29 -3.84 -0.09 0 -47.65 6.25 0.16 6.19 0.47 6.11 0.78 6 1.07 5.91 1.36 5.8 1.65 5.67 1.92 5.55 2.19 5.41 2.44 5.26 2.7 5.1 2.93 4.95 3.17 4.78 3.4 4.59 3.61 4.42 3.83 4.22 4.03 4.02 4.22 3.83 4.42 3.61 4.6 3.39 4.77 3.17 4.94 2.94 5.11 2.69 5.26 2.43 5.39 2.19 5.54 1.92 5.67 1.65 5.79 1.36 5.9 1.07 5.98 0.78 6.09 0.47 6.18 0.16 6.24 0 0 0.01 -0.02zm-121.89 121.8l0 -47.65 0 0 3.84 -0.09 3.75 -0.29 3.7 -0.47 3.65 -0.65 3.57 -0.82 3.5 -1 3.43 -1.16 3.35 -1.32 3.27 -1.48 3.19 -1.63 3.11 -1.79 3 -1.92 2.9 -2.06 2.81 -2.21 2.69 -2.33 2.58 -2.46 2.46 -2.58 2.33 -2.69 2.2 -2.8 2.07 -2.92 1.93 -3.01 1.79 -3.1 1.63 -3.19 1.49 -3.29 1.33 -3.36 1.16 -3.44 1 -3.51 0.82 -3.58 0.65 -3.67 0.48 -3.72 0.29 -3.76 0.09 -3.85 47.83 0 -0.16 6.24 -0.47 6.18 -0.78 6.09 -1.07 5.98 -1.36 5.9 -1.65 5.79 -1.92 5.67 -2.19 5.54 -2.43 5.39 -2.69 5.26 -2.94 5.11 -3.17 4.94 -3.39 4.77 -3.61 4.6 -3.83 4.42 -4.02 4.22 -4.22 4.03 -4.42 3.83 -4.59 3.61 -4.78 3.4 -4.95 3.17 -5.1 2.93 -5.26 2.7 -5.41 2.44 -5.55 2.19 -5.67 1.92 -5.8 1.65 -5.91 1.36 -6 1.07 -6.11 0.78 -6.19 0.47 -6.25 0.16 0 0 -0.01 -0.02zm-121.89 -121.8l47.83 0 0 0 0.09 3.85 0.29 3.76 0.48 3.72 0.65 3.67 0.82 3.58 1 3.51 1.16 3.44 1.33 3.36 1.49 3.29 1.63 3.19 1.79 3.1 1.93 3.01 2.07 2.92 2.2 2.8 2.33 2.7 2.46 2.57 2.57 2.46 2.7 2.33 2.81 2.21 2.9 2.06 3 1.92 3.11 1.79 3.19 1.63 3.27 1.48 3.35 1.32 3.43 1.16 3.5 1 3.57 0.82 3.65 0.65 3.7 0.47 3.75 0.29 3.84 0.09 0 47.65 -6.25 -0.16 -6.19 -0.47 -6.11 -0.78 -6 -1.07 -5.91 -1.36 -5.8 -1.65 -5.67 -1.92 -5.55 -2.19 -5.41 -2.44 -5.26 -2.7 -5.1 -2.93 -4.95 -3.17 -4.78 -3.4 -4.59 -3.61 -4.41 -3.82 -4.24 -4.03 -4.02 -4.23 -3.83 -4.41 -3.61 -4.6 -3.39 -4.77 -3.17 -4.94 -2.94 -5.11 -2.69 -5.26 -2.43 -5.39 -2.19 -5.54 -1.92 -5.67 -1.65 -5.79 -1.36 -5.9 -1.07 -5.98 -0.78 -6.09 -0.47 -6.18 -0.16 -6.24 0 0 -0.01 0zm121.89 -121.8l0 47.65 0 0 -3.84 0.09 -3.75 0.29 -3.7 0.47 -3.65 0.65 -3.57 0.82 -3.5 1 -3.43 1.16 -3.35 1.32 -3.27 1.48 -3.19 1.63 -3.11 1.79 -3 1.92 -2.9 2.06 -2.81 2.21 -2.7 2.33 -2.57 2.46 -2.46 2.57 -2.33 2.7 -2.2 2.8 -2.07 2.92 -1.93 3.01 -1.79 3.1 -1.63 3.19 -1.49 3.29 -1.33 3.36 -1.16 3.44 -1 3.51 -0.82 3.58 -0.65 3.67 -0.48 3.72 -0.29 3.76 -0.09 3.85 -47.83 0 0.16 -6.24 0.47 -6.18 0.78 -6.09 1.07 -5.98 1.36 -5.9 1.65 -5.79 1.92 -5.67 2.19 -5.54 2.43 -5.39 2.69 -5.26 2.94 -5.11 3.17 -4.94 3.39 -4.77 3.61 -4.6 3.83 -4.41 4.02 -4.23 4.24 -4.03 4.41 -3.82 4.59 -3.61 4.78 -3.4 4.95 -3.17 5.1 -2.93 5.26 -2.7 5.41 -2.44 5.55 -2.19 5.67 -1.92 5.8 -1.65 5.91 -1.36 6 -1.07 6.11 -0.78 6.19 -0.47 6.25 -0.16 0 0 0.01 0z"/>
    </g>
    <g>
     <path class="fil1" d="M1623 1142.16l-47.83 0 0 0 -0.09 -3.85 -0.29 -3.76 -0.48 -3.72 -0.65 -3.67 -0.82 -3.58 -1 -3.51 -1.16 -3.44 -1.33 -3.36 -1.49 -3.29 -1.63 -3.19 -1.79 -3.1 -1.93 -3.01 -2.07 -2.92 -2.2 -2.8 -2.33 -2.69 -2.46 -2.58 -2.58 -2.46 -2.69 -2.33 -2.81 -2.21 -2.9 -2.06 -3 -1.92 -3.11 -1.79 -3.19 -1.63 -3.27 -1.48 -3.35 -1.32 -3.43 -1.16 -3.5 -1 -3.57 -0.82 -3.65 -0.65 -3.7 -0.47 -3.75 -0.29 -3.84 -0.09 0 -47.65 6.25 0.16 6.19 0.47 6.11 0.78 6 1.07 5.91 1.36 5.8 1.65 5.67 1.92 5.55 2.19 5.41 2.44 5.26 2.7 5.1 2.93 4.95 3.17 4.78 3.4 4.59 3.61 4.42 3.83 4.22 4.03 4.02 4.22 3.83 4.42 3.61 4.6 3.39 4.77 3.17 4.94 2.94 5.11 2.69 5.26 2.43 5.39 2.19 5.54 1.92 5.67 1.65 5.79 1.36 5.9 1.07 5.98 0.78 6.09 0.47 6.18 0.16 6.24 0 0 0.01 -0.02zm-121.89 121.8l0 -47.65 0 0 3.84 -0.09 3.75 -0.29 3.7 -0.47 3.65 -0.65 3.57 -0.82 3.5 -1 3.43 -1.16 3.35 -1.32 3.27 -1.48 3.19 -1.63 3.11 -1.79 3 -1.92 2.9 -2.06 2.81 -2.21 2.69 -2.33 2.58 -2.46 2.46 -2.58 2.33 -2.69 2.2 -2.8 2.07 -2.92 1.93 -3.01 1.79 -3.1 1.63 -3.19 1.49 -3.29 1.33 -3.36 1.16 -3.44 1 -3.51 0.82 -3.58 0.65 -3.67 0.48 -3.72 0.29 -3.76 0.09 -3.85 47.83 0 -0.16 6.24 -0.47 6.18 -0.78 6.09 -1.07 5.98 -1.36 5.9 -1.65 5.79 -1.92 5.67 -2.19 5.54 -2.43 5.39 -2.69 5.26 -2.94 5.11 -3.17 4.94 -3.39 4.77 -3.61 4.6 -3.83 4.42 -4.02 4.22 -4.22 4.03 -4.42 3.83 -4.59 3.61 -4.78 3.4 -4.95 3.17 -5.1 2.93 -5.26 2.7 -5.41 2.44 -5.55 2.19 -5.67 1.92 -5.8 1.65 -5.91 1.36 -6 1.07 -6.11 0.78 -6.19 0.47 -6.25 0.16 0 0 -0.01 -0.02zm-121.89 -121.8l47.83 0 0 0 0.09 3.85 0.29 3.76 0.48 3.72 0.65 3.67 0.82 3.58 1 3.51 1.16 3.44 1.33 3.36 1.49 3.29 1.63 3.19 1.79 3.1 1.93 3.01 2.07 2.92 2.2 2.8 2.33 2.7 2.46 2.57 2.57 2.46 2.7 2.33 2.81 2.21 2.9 2.06 3 1.92 3.11 1.79 3.19 1.63 3.27 1.48 3.35 1.32 3.43 1.16 3.5 1 3.57 0.82 3.65 0.65 3.7 0.47 3.75 0.29 3.84 0.09 0 47.65 -6.25 -0.16 -6.19 -0.47 -6.11 -0.78 -6 -1.07 -5.91 -1.36 -5.8 -1.65 -5.67 -1.92 -5.55 -2.19 -5.41 -2.44 -5.26 -2.7 -5.1 -2.93 -4.95 -3.17 -4.78 -3.4 -4.59 -3.61 -4.41 -3.82 -4.24 -4.03 -4.02 -4.23 -3.83 -4.41 -3.61 -4.6 -3.39 -4.77 -3.17 -4.94 -2.94 -5.11 -2.69 -5.26 -2.43 -5.39 -2.19 -5.54 -1.92 -5.67 -1.65 -5.79 -1.36 -5.9 -1.07 -5.98 -0.78 -6.09 -0.47 -6.18 -0.16 -6.24 0 0 -0.01 0zm121.89 -121.8l0 47.65 0 0 -3.84 0.09 -3.75 0.29 -3.7 0.47 -3.65 0.65 -3.57 0.82 -3.5 1 -3.43 1.16 -3.35 1.32 -3.27 1.48 -3.19 1.63 -3.11 1.79 -3 1.92 -2.9 2.06 -2.81 2.21 -2.7 2.33 -2.57 2.46 -2.46 2.57 -2.33 2.7 -2.2 2.8 -2.07 2.92 -1.93 3.01 -1.79 3.1 -1.63 3.19 -1.49 3.29 -1.33 3.36 -1.16 3.44 -1 3.51 -0.82 3.58 -0.65 3.67 -0.48 3.72 -0.29 3.76 -0.09 3.85 -47.83 0 0.16 -6.24 0.47 -6.18 0.78 -6.09 1.07 -5.98 1.36 -5.9 1.65 -5.79 1.92 -5.67 2.19 -5.54 2.43 -5.39 2.69 -5.26 2.94 -5.11 3.17 -4.94 3.39 -4.77 3.61 -4.6 3.83 -4.41 4.02 -4.23 4.24 -4.03 4.41 -3.82 4.59 -3.61 4.78 -3.4 4.95 -3.17 5.1 -2.93 5.26 -2.7 5.41 -2.44 5.55 -2.19 5.67 -1.92 5.8 -1.65 5.91 -1.36 6 -1.07 6.11 -0.78 6.19 -0.47 6.25 -0.16 0 0 0.01 0z"/>
    </g>
    <path class="fil2 str0" d="M461.15 1161.17l822.33 0 2.91 486.56c-0.04,48.65 -13.84,89.79 -35.81,126.46l-765.52 0c-18.57,-29.57 -29.96,-66.31 -28.61,-115.81l4.69 -497.2 0 -0.01z"/>
    <path class="fil2 str0" d="M485.07 1774.19c189.28,326.16 602.7,323.22 765.52,0"/>
    <path class="fil2 str0" d="M149.15 1725.09c-1.78,-136.5 -16.98,-104 94.2,-183.91 113.06,77.73 95.2,46.46 98.68,183.91"/>
    <path class="fil2 str0" d="M1403.81 1725.09c-1.78,-136.5 -16.98,-104 94.2,-183.91 113.06,77.73 95.2,46.46 98.68,183.91"/>
    <ellipse class="fil3" cx="149.13" cy="1725.15" rx="25.41" ry="16.14"/>
    <ellipse class="fil3" cx="1403.81" cy="1725.15" rx="25.41" ry="16.14"/>
    <ellipse class="fil3" cx="342.02" cy="1725.15" rx="25.41" ry="16.14"/>
    <ellipse class="fil3" cx="1596.69" cy="1725.15" rx="25.41" ry="16.14"/>
    <g>
     <path class="fil4" d="M685.06 867.4l381.65 0c12.65,0 22.99,10.35 22.99,22.98l0 0.01c0,12.64 -10.34,22.98 -22.99,22.98l-381.65 0c-12.64,0 -22.98,-10.34 -22.98,-22.98l0 -0.01c0,-12.64 10.34,-22.98 22.98,-22.98z"/>
     <path id="_1" class="fil1" d="M1066.7 873.77l-381.65 0 0 -12.76 381.65 0 0 0 0 12.76zm29.33 16.61l-12.69 0 0 0 -0.02 -0.85 -0.06 -0.84 -0.11 -0.82 -0.14 -0.81 -0.19 -0.79 -0.22 -0.79 -0.26 -0.76 -0.3 -0.75 -0.33 -0.74 -0.36 -0.71 -0.4 -0.69 -0.44 -0.67 -0.47 -0.67 -0.49 -0.63 -0.52 -0.59 -0.56 -0.58 -0.58 -0.56 -0.61 -0.53 -0.63 -0.5 -0.66 -0.47 -0.68 -0.44 -0.69 -0.4 -0.71 -0.36 -0.75 -0.34 -0.76 -0.3 -0.76 -0.26 -0.8 -0.23 -0.8 -0.19 -0.82 -0.15 -0.83 -0.11 -0.84 -0.06 -0.86 -0.02 0 -12.76 1.5 0.04 1.49 0.11 1.46 0.19 1.44 0.26 1.43 0.33 1.39 0.39 1.37 0.46 1.32 0.53 1.29 0.58 1.28 0.65 1.24 0.71 1.19 0.76 1.14 0.81 1.11 0.87 1.06 0.92 1.02 0.96 0.97 1.02 0.93 1.07 0.87 1.11 0.81 1.14 0.77 1.19 0.71 1.24 0.65 1.27 0.59 1.3 0.53 1.33 0.46 1.37 0.4 1.39 0.33 1.43 0.26 1.44 0.19 1.47 0.11 1.49 0.04 1.5 0 0 -0.02 0.03zm-12.69 0.01l0 -0.01 12.69 0 0 0.01 0 0 -12.69 0zm-16.64 29.36l0 -12.76 0 0 0.86 -0.02 0.84 -0.06 0.83 -0.11 0.82 -0.15 0.8 -0.19 0.8 -0.23 0.76 -0.26 0.76 -0.3 0.75 -0.34 0.71 -0.36 0.69 -0.4 0.67 -0.43 0.66 -0.47 0.64 -0.5 0.59 -0.52 0.59 -0.56 0.56 -0.59 0.52 -0.59 0.5 -0.63 0.47 -0.66 0.43 -0.67 0.4 -0.69 0.36 -0.71 0.33 -0.74 0.3 -0.76 0.26 -0.76 0.22 -0.79 0.19 -0.79 0.14 -0.81 0.11 -0.82 0.06 -0.84 0.02 -0.85 12.69 0 -0.04 1.5 -0.11 1.49 -0.19 1.47 -0.26 1.44 -0.33 1.43 -0.4 1.39 -0.46 1.37 -0.53 1.33 -0.59 1.3 -0.65 1.27 -0.71 1.24 -0.77 1.2 -0.81 1.13 -0.87 1.11 -0.93 1.07 -0.97 1.01 -1.01 0.97 -1.07 0.93 -1.1 0.87 -1.14 0.82 -1.19 0.76 -1.23 0.71 -1.28 0.65 -1.29 0.58 -1.32 0.53 -1.37 0.46 -1.39 0.39 -1.43 0.33 -1.44 0.26 -1.46 0.19 -1.49 0.11 -1.5 0.04 0 0 0.01 0zm-381.65 -12.76l381.65 0 0 12.76 -381.65 0 0 0 0 -12.76zm-29.33 -16.6l12.69 0 0 0 0.02 0.85 0.06 0.84 0.11 0.82 0.14 0.81 0.19 0.79 0.22 0.79 0.26 0.76 0.3 0.76 0.33 0.74 0.36 0.71 0.4 0.69 0.43 0.67 0.47 0.66 0.5 0.63 0.52 0.59 0.56 0.59 0.59 0.56 0.59 0.52 0.64 0.5 0.66 0.47 0.67 0.43 0.69 0.4 0.72 0.37 0.74 0.33 0.76 0.3 0.77 0.26 0.79 0.23 0.79 0.19 0.82 0.15 0.83 0.11 0.84 0.06 0.86 0.02 0 12.76 -1.5 -0.04 -1.49 -0.11 -1.46 -0.19 -1.44 -0.26 -1.43 -0.33 -1.38 -0.39 -1.36 -0.46 -1.33 -0.53 -1.3 -0.59 -1.27 -0.65 -1.23 -0.71 -1.19 -0.76 -1.14 -0.82 -1.1 -0.87 -1.07 -0.93 -1.01 -0.97 -0.97 -1.01 -0.93 -1.07 -0.87 -1.11 -0.81 -1.13 -0.77 -1.2 -0.71 -1.24 -0.65 -1.27 -0.59 -1.3 -0.53 -1.33 -0.46 -1.37 -0.4 -1.39 -0.33 -1.43 -0.26 -1.44 -0.19 -1.47 -0.11 -1.49 -0.04 -1.5 0 0 0 0zm12.69 -0.01l0 0.01 -12.69 0 0 -0.01 0 0 12.69 0zm16.64 -29.36l0 12.76 0 0 -0.86 0.02 -0.84 0.06 -0.83 0.11 -0.82 0.15 -0.79 0.19 -0.79 0.23 -0.77 0.26 -0.76 0.3 -0.74 0.33 -0.72 0.37 -0.69 0.4 -0.68 0.44 -0.66 0.47 -0.63 0.5 -0.61 0.53 -0.58 0.56 -0.56 0.58 -0.52 0.59 -0.49 0.63 -0.47 0.67 -0.44 0.67 -0.4 0.69 -0.36 0.71 -0.33 0.74 -0.3 0.75 -0.26 0.76 -0.22 0.79 -0.19 0.79 -0.14 0.81 -0.11 0.82 -0.06 0.84 -0.02 0.85 -12.69 0 0.04 -1.5 0.11 -1.49 0.19 -1.47 0.26 -1.44 0.33 -1.43 0.4 -1.39 0.46 -1.37 0.53 -1.33 0.59 -1.3 0.65 -1.27 0.71 -1.24 0.77 -1.19 0.81 -1.14 0.87 -1.11 0.93 -1.07 0.97 -1.02 1.02 -0.96 1.06 -0.92 1.11 -0.87 1.14 -0.81 1.19 -0.76 1.24 -0.71 1.27 -0.65 1.3 -0.59 1.33 -0.53 1.36 -0.46 1.38 -0.39 1.43 -0.33 1.44 -0.26 1.46 -0.19 1.49 -0.11 1.5 -0.04 0 0 -0.02 -0.02z"/>
    </g>
    <g>
     <path class="fil3" d="M734.72 1444.53l212.52 -184.92c7.04,-6.13 17.81,-5.38 23.94,1.67l0 0c6.13,7.04 5.38,17.81 -1.66,23.94l-212.52 184.92c-7.04,6.13 -17.81,5.38 -23.94,-1.66l0 0c-6.13,-7.04 -5.38,-17.81 1.66,-23.94l0 -0.01z"/>
     <path id="_1_0" class="fil5" d="M951.43 1264.42l-212.52 184.92 -8.37 -9.62 212.52 -184.92 8.37 9.62zm24.54 -7.31l-9.57 8.33 0 0 -0.37 -0.41 -0.38 -0.37 -0.39 -0.35 -0.41 -0.33 -0.43 -0.31 -0.44 -0.28 -0.44 -0.26 -0.45 -0.24 -0.46 -0.21 -0.48 -0.19 -0.48 -0.17 -0.49 -0.14 -0.51 -0.12 -0.5 -0.1 -0.5 -0.07 -0.5 -0.04 -0.52 -0.02 -0.52 0 -0.51 0.02 -0.51 0.05 -0.51 0.07 -0.5 0.1 -0.5 0.13 -0.49 0.15 -0.48 0.17 -0.48 0.2 -0.48 0.22 -0.46 0.25 -0.45 0.26 -0.44 0.3 -0.44 0.32 -0.42 0.35 -8.37 -9.62 0.92 -0.76 0.94 -0.7 0.97 -0.65 1.01 -0.6 1.02 -0.54 1.04 -0.49 1.05 -0.43 1.07 -0.38 1.09 -0.33 1.09 -0.27 1.11 -0.22 1.11 -0.17 1.12 -0.11 1.12 -0.06 1.11 0 1.11 0.05 1.12 0.11 1.11 0.16 1.11 0.21 1.08 0.26 1.08 0.31 1.06 0.37 1.04 0.41 1.04 0.48 1.02 0.53 0.99 0.58 0.96 0.63 0.94 0.68 0.91 0.73 0.88 0.79 0.85 0.84 0.8 0.88 0 0 0.02 -0.01zm-4.79 4.17l0 0 0 0 0 0 4.79 -4.17 -4.79 4.17zm2.52 28.75l-8.37 -9.62 0 0 0.41 -0.37 0.37 -0.38 0.35 -0.39 0.33 -0.41 0.31 -0.43 0.29 -0.44 0.26 -0.43 0.24 -0.46 0.22 -0.48 0.19 -0.48 0.17 -0.48 0.14 -0.48 0.12 -0.51 0.1 -0.52 0.07 -0.5 0.05 -0.52 0.02 -0.51 0 -0.51 -0.02 -0.52 -0.05 -0.51 -0.07 -0.5 -0.1 -0.5 -0.12 -0.5 -0.15 -0.49 -0.17 -0.49 -0.2 -0.48 -0.22 -0.47 -0.24 -0.46 -0.26 -0.44 -0.3 -0.44 -0.32 -0.44 -0.35 -0.41 9.57 -8.33 0.76 0.93 0.7 0.95 0.65 0.98 0.6 1.01 0.55 1.02 0.49 1.05 0.43 1.06 0.38 1.08 0.33 1.08 0.27 1.1 0.22 1.11 0.16 1.12 0.11 1.12 0.06 1.11 0 1.12 -0.06 1.12 -0.1 1.1 -0.16 1.11 -0.21 1.09 -0.26 1.08 -0.32 1.09 -0.37 1.06 -0.42 1.05 -0.47 1.03 -0.52 1.01 -0.58 1 -0.63 0.96 -0.68 0.93 -0.73 0.91 -0.78 0.88 -0.84 0.85 -0.87 0.8 0 0 0 0zm-220.89 175.3l212.52 -184.92 8.37 9.62 -212.52 184.92 -8.37 -9.62zm-24.54 7.31l9.57 -8.33 0 0 0.36 0.4 0.39 0.38 0.39 0.35 0.41 0.33 0.43 0.31 0.44 0.28 0.44 0.26 0.44 0.23 0.48 0.22 0.48 0.19 0.48 0.17 0.48 0.14 0.5 0.12 0.51 0.1 0.5 0.07 0.52 0.05 0.51 0.02 0.51 0 0.53 -0.02 0.51 -0.05 0.51 -0.07 0.5 -0.1 0.5 -0.13 0.49 -0.15 0.49 -0.17 0.48 -0.2 0.47 -0.22 0.47 -0.25 0.44 -0.26 0.44 -0.3 0.44 -0.32 0.42 -0.35 8.37 9.62 -0.92 0.76 -0.94 0.7 -0.97 0.65 -1.01 0.6 -1.02 0.54 -1.04 0.49 -1.06 0.43 -1.07 0.38 -1.09 0.33 -1.09 0.27 -1.11 0.22 -1.11 0.17 -1.12 0.11 -1.1 0.06 -1.12 0 -1.12 -0.06 -1.11 -0.1 -1.11 -0.16 -1.09 -0.21 -1.09 -0.26 -1.09 -0.32 -1.07 -0.37 -1.05 -0.42 -1.02 -0.46 -1.03 -0.53 -0.99 -0.58 -0.96 -0.63 -0.94 -0.68 -0.91 -0.73 -0.88 -0.79 -0.84 -0.83 -0.81 -0.89 0 0 -0.03 -0.01zm4.79 -4.17l0 0 0 0 0 0 -4.79 4.17 4.79 -4.17zm-2.52 -28.75l8.37 9.62 0 0 -0.41 0.37 -0.37 0.38 -0.35 0.39 -0.33 0.41 -0.31 0.43 -0.28 0.43 -0.26 0.44 -0.24 0.48 -0.22 0.47 -0.18 0.47 -0.17 0.49 -0.14 0.48 -0.12 0.51 -0.1 0.51 -0.07 0.5 -0.05 0.52 -0.02 0.51 0 0.51 0.02 0.52 0.05 0.51 0.07 0.5 0.1 0.51 0.12 0.49 0.15 0.49 0.17 0.49 0.2 0.48 0.22 0.47 0.24 0.46 0.26 0.44 0.3 0.44 0.32 0.44 0.35 0.41 -9.57 8.33 -0.76 -0.93 -0.7 -0.95 -0.65 -0.98 -0.6 -1.01 -0.55 -1.02 -0.49 -1.05 -0.43 -1.06 -0.38 -1.08 -0.33 -1.08 -0.27 -1.11 -0.22 -1.11 -0.16 -1.11 -0.11 -1.12 -0.06 -1.11 0 -1.12 0.06 -1.12 0.1 -1.1 0.16 -1.12 0.21 -1.09 0.26 -1.08 0.31 -1.09 0.37 -1.06 0.43 -1.06 0.47 -1.03 0.51 -0.99 0.58 -1 0.63 -0.97 0.68 -0.93 0.73 -0.91 0.78 -0.88 0.84 -0.85 0.87 -0.8 0 0 -0.02 0z"/>
    </g>
    <g>
     <path class="fil3" d="M746.32 1444.69l214.21 -0.42c9.33,-0.02 16.98,7.6 16.99,16.94l0 0c0.01,9.33 -7.61,16.98 -16.95,17l-214.21 0.42c-9.33,0.02 -16.98,-7.6 -16.99,-16.94l0 0c-0.01,-9.33 7.61,-16.98 16.95,-17z"/>
     <path id="_1_1" class="fil5" d="M960.54 1450.65l-214.21 0.42 -0.02 -12.75 214.21 -0.42 0 0 0.02 12.75zm23.35 10.56l-12.76 0.02 0 0 -0.01 -0.54 -0.04 -0.54 -0.07 -0.53 -0.09 -0.52 -0.12 -0.51 -0.14 -0.51 -0.16 -0.48 -0.19 -0.47 -0.21 -0.47 -0.24 -0.45 -0.26 -0.46 -0.27 -0.43 -0.3 -0.42 -0.31 -0.4 -0.33 -0.37 -0.36 -0.37 -0.38 -0.36 -0.39 -0.34 -0.39 -0.3 -0.42 -0.3 -0.44 -0.28 -0.44 -0.26 -0.44 -0.23 -0.47 -0.21 -0.49 -0.19 -0.49 -0.17 -0.5 -0.14 -0.49 -0.11 -0.52 -0.09 -0.55 -0.07 -0.53 -0.04 -0.54 -0.01 -0.02 -12.75 1.2 0.03 1.19 0.09 1.15 0.15 1.15 0.2 1.15 0.26 1.11 0.32 1.08 0.37 1.06 0.41 1.04 0.47 1.02 0.52 0.98 0.56 0.93 0.6 0.92 0.65 0.9 0.7 0.83 0.73 0.8 0.76 0.78 0.81 0.74 0.85 0.69 0.88 0.65 0.91 0.61 0.95 0.56 0.96 0.52 1 0.47 1.04 0.43 1.06 0.37 1.1 0.31 1.1 0.26 1.13 0.21 1.15 0.15 1.16 0.09 1.18 0.04 1.2 0 0 -0.02 0zm-6.38 0.01l0 0 0 0 0 0 6.38 -0.01 -6.38 0.01zm-16.94 23.37l-0.02 -12.75 0 0 0.55 -0.02 0.53 -0.04 0.53 -0.07 0.52 -0.09 0.5 -0.12 0.51 -0.15 0.49 -0.17 0.47 -0.19 0.47 -0.21 0.46 -0.24 0.44 -0.25 0.43 -0.28 0.43 -0.31 0.4 -0.31 0.38 -0.33 0.37 -0.35 0.35 -0.37 0.33 -0.39 0.32 -0.41 0.31 -0.43 0.27 -0.42 0.25 -0.44 0.24 -0.47 0.21 -0.46 0.19 -0.48 0.17 -0.48 0.14 -0.5 0.12 -0.52 0.09 -0.52 0.07 -0.53 0.04 -0.53 0.01 -0.54 12.76 -0.02 -0.03 1.2 -0.09 1.19 -0.15 1.16 -0.2 1.15 -0.26 1.12 -0.31 1.12 -0.37 1.09 -0.42 1.05 -0.47 1.04 -0.52 1 -0.56 0.98 -0.62 0.96 -0.64 0.9 -0.69 0.89 -0.73 0.84 -0.77 0.82 -0.81 0.77 -0.85 0.74 -0.88 0.69 -0.91 0.65 -0.95 0.61 -0.98 0.57 -1 0.52 -1.03 0.47 -1.06 0.42 -1.09 0.37 -1.1 0.32 -1.14 0.27 -1.15 0.21 -1.16 0.15 -1.19 0.09 -1.19 0.03 0 0 -0.01 -0zm-214.23 -12.33l214.21 -0.42 0.02 12.75 -214.21 0.42 0 0 -0.02 -12.75zm-23.35 -10.56l12.76 -0.02 0 0 0.01 0.54 0.04 0.54 0.07 0.53 0.09 0.52 0.12 0.51 0.14 0.5 0.17 0.49 0.19 0.48 0.2 0.46 0.24 0.45 0.26 0.45 0.28 0.44 0.3 0.42 0.31 0.39 0.34 0.39 0.35 0.37 0.37 0.35 0.4 0.34 0.4 0.31 0.41 0.3 0.43 0.28 0.45 0.26 0.45 0.23 0.46 0.21 0.49 0.19 0.49 0.17 0.5 0.14 0.49 0.11 0.52 0.09 0.55 0.07 0.53 0.04 0.54 0.01 0.02 12.75 -1.2 -0.03 -1.19 -0.09 -1.15 -0.15 -1.15 -0.2 -1.15 -0.26 -1.11 -0.32 -1.08 -0.37 -1.06 -0.41 -1.04 -0.47 -1.01 -0.52 -0.97 -0.56 -0.95 -0.61 -0.92 -0.65 -0.88 -0.69 -0.84 -0.73 -0.81 -0.77 -0.77 -0.81 -0.73 -0.84 -0.7 -0.89 -0.65 -0.91 -0.61 -0.94 -0.56 -0.97 -0.52 -1 -0.48 -1.05 -0.41 -1.05 -0.37 -1.09 -0.32 -1.11 -0.26 -1.13 -0.21 -1.15 -0.15 -1.16 -0.09 -1.18 -0.04 -1.2 0 0 0.01 0zm6.38 -0.01l0 0 0 0 0 0 -6.38 0.01 6.38 -0.01zm16.94 -23.37l0.02 12.75 0 0 -0.55 0.02 -0.53 0.04 -0.53 0.07 -0.52 0.09 -0.5 0.12 -0.51 0.15 -0.49 0.17 -0.47 0.19 -0.47 0.21 -0.46 0.24 -0.44 0.25 -0.43 0.28 -0.43 0.31 -0.4 0.31 -0.38 0.33 -0.37 0.35 -0.35 0.37 -0.33 0.39 -0.32 0.41 -0.31 0.43 -0.27 0.42 -0.25 0.44 -0.24 0.47 -0.21 0.46 -0.19 0.48 -0.17 0.48 -0.14 0.5 -0.12 0.52 -0.09 0.52 -0.07 0.53 -0.04 0.53 -0.01 0.54 -12.76 0.02 0.03 -1.2 0.09 -1.19 0.15 -1.16 0.2 -1.15 0.26 -1.12 0.31 -1.12 0.37 -1.09 0.42 -1.05 0.47 -1.04 0.52 -1 0.56 -0.98 0.62 -0.96 0.64 -0.9 0.69 -0.89 0.73 -0.84 0.77 -0.82 0.81 -0.77 0.85 -0.74 0.88 -0.69 0.91 -0.65 0.95 -0.61 0.98 -0.57 1 -0.52 1.03 -0.47 1.06 -0.42 1.09 -0.37 1.1 -0.32 1.14 -0.27 1.15 -0.21 1.16 -0.15 1.19 -0.09 1.19 -0.03 0 0 0.01 0z"/>
    </g>
    <g>
     <path class="fil3" d="M750.86 1643.22l192.04 -191.88c8.25,-8.24 21.73,-8.23 29.97,0.02l0 0c8.24,8.26 8.23,21.75 -0.02,29.99l-192.04 191.88c-8.25,8.24 -21.73,8.23 -29.97,-0.02l0 0c-8.24,-8.26 -8.23,-21.75 0.02,-29.99z"/>
     <path id="_1_2" class="fil5" d="M947.41 1455.85l-192.04 191.88 -8.99 -9 192.04 -191.88 0 0 8.99 9zm29.99 -8.98l-9.03 9.01 0 0 -0.56 -0.53 -0.57 -0.5 -0.58 -0.45 -0.61 -0.43 -0.62 -0.39 -0.62 -0.35 -0.66 -0.32 -0.67 -0.3 -0.67 -0.25 -0.69 -0.22 -0.69 -0.19 -0.7 -0.15 -0.71 -0.12 -0.72 -0.09 -0.71 -0.05 -0.7 -0.02 -0.72 0.02 -0.72 0.05 -0.7 0.08 -0.7 0.12 -0.69 0.15 -0.7 0.19 -0.69 0.22 -0.67 0.25 -0.66 0.28 -0.65 0.33 -0.64 0.35 -0.61 0.38 -0.61 0.43 -0.59 0.46 -0.57 0.48 -0.55 0.52 -8.99 -9 1.02 -0.97 1.07 -0.92 1.09 -0.84 1.13 -0.79 1.17 -0.73 1.19 -0.66 1.21 -0.59 1.24 -0.54 1.26 -0.47 1.27 -0.41 1.28 -0.35 1.3 -0.28 1.31 -0.22 1.32 -0.15 1.31 -0.09 1.31 -0.03 1.33 0.03 1.32 0.1 1.31 0.16 1.3 0.22 1.3 0.28 1.29 0.35 1.26 0.41 1.26 0.48 1.23 0.53 1.21 0.59 1.21 0.67 1.16 0.73 1.12 0.78 1.11 0.86 1.06 0.91 1.02 0.97 0 0 0 0.01zm-4.52 4.5l0 0 0 0 0 0 4.52 -4.5 -4.52 4.5zm4.47 34.49l-8.99 -9 0 0 0.52 -0.55 0.49 -0.58 0.46 -0.59 0.41 -0.59 0.38 -0.61 0.36 -0.64 0.32 -0.66 0.29 -0.66 0.25 -0.67 0.22 -0.67 0.19 -0.7 0.16 -0.7 0.12 -0.7 0.09 -0.72 0.05 -0.71 0.02 -0.71 -0.02 -0.72 -0.05 -0.71 -0.09 -0.72 -0.11 -0.72 -0.15 -0.68 -0.19 -0.7 -0.22 -0.69 -0.25 -0.67 -0.28 -0.66 -0.32 -0.66 -0.35 -0.64 -0.38 -0.61 -0.43 -0.61 -0.46 -0.6 -0.48 -0.56 -0.53 -0.56 9.03 -9.01 0.96 1.02 0.92 1.07 0.84 1.09 0.79 1.13 0.73 1.18 0.65 1.19 0.6 1.21 0.54 1.24 0.47 1.26 0.4 1.27 0.35 1.28 0.28 1.32 0.22 1.3 0.16 1.31 0.09 1.33 0.03 1.31 -0.03 1.32 -0.1 1.33 -0.16 1.31 -0.22 1.31 -0.28 1.29 -0.34 1.28 -0.41 1.28 -0.47 1.26 -0.54 1.24 -0.6 1.21 -0.66 1.19 -0.73 1.17 -0.8 1.14 -0.84 1.09 -0.91 1.06 -0.98 1.03 0 0 -0.03 -0.04zm-201.03 182.88l192.04 -191.88 8.99 9 -192.04 191.88 0 0 -8.99 -9zm-29.99 8.98l9.03 -9.01 0 0 0.56 0.53 0.57 0.5 0.57 0.44 0.61 0.42 0.63 0.39 0.63 0.35 0.65 0.32 0.66 0.29 0.67 0.25 0.69 0.22 0.69 0.19 0.69 0.15 0.71 0.12 0.72 0.09 0.71 0.05 0.7 0.02 0.72 -0.02 0.72 -0.05 0.7 -0.08 0.7 -0.12 0.69 -0.15 0.7 -0.19 0.69 -0.22 0.67 -0.25 0.65 -0.28 0.65 -0.32 0.65 -0.35 0.61 -0.38 0.61 -0.42 0.59 -0.46 0.57 -0.48 0.55 -0.53 8.99 9.01 -1.02 0.97 -1.07 0.92 -1.09 0.84 -1.13 0.79 -1.18 0.73 -1.18 0.65 -1.2 0.6 -1.25 0.54 -1.26 0.48 -1.27 0.4 -1.28 0.35 -1.31 0.28 -1.31 0.22 -1.32 0.15 -1.31 0.09 -1.31 0.03 -1.33 -0.03 -1.32 -0.1 -1.3 -0.16 -1.3 -0.22 -1.3 -0.28 -1.29 -0.35 -1.27 -0.41 -1.26 -0.48 -1.24 -0.54 -1.2 -0.59 -1.2 -0.67 -1.15 -0.72 -1.13 -0.78 -1.11 -0.86 -1.06 -0.91 -1.02 -0.97 0 0 0.03 -0zm4.52 -4.5l0 0 0 0 0 0 -4.52 4.5 4.52 -4.5zm-4.47 -34.49l8.99 9 0 0 -0.52 0.55 -0.49 0.58 -0.46 0.59 -0.41 0.59 -0.38 0.61 -0.36 0.64 -0.32 0.66 -0.29 0.66 -0.25 0.67 -0.22 0.67 -0.19 0.7 -0.16 0.7 -0.12 0.7 -0.09 0.72 -0.05 0.71 -0.02 0.71 0.02 0.72 0.05 0.71 0.09 0.72 0.11 0.72 0.15 0.68 0.19 0.7 0.22 0.69 0.25 0.67 0.28 0.66 0.32 0.66 0.35 0.64 0.38 0.61 0.43 0.61 0.46 0.6 0.48 0.56 0.53 0.56 -9.03 9.01 -0.96 -1.02 -0.92 -1.07 -0.84 -1.09 -0.79 -1.13 -0.73 -1.18 -0.65 -1.19 -0.6 -1.21 -0.54 -1.24 -0.47 -1.26 -0.4 -1.27 -0.35 -1.28 -0.28 -1.32 -0.22 -1.3 -0.16 -1.31 -0.09 -1.33 -0.03 -1.31 0.03 -1.33 0.1 -1.33 0.16 -1.31 0.22 -1.31 0.28 -1.29 0.34 -1.28 0.41 -1.28 0.47 -1.26 0.54 -1.24 0.6 -1.21 0.66 -1.19 0.73 -1.17 0.8 -1.14 0.84 -1.09 0.91 -1.06 0.98 -1.03 0 0 0.03 0.05z"/>
    </g>
    <rect class="fil4" x="1463.97" y="1232.85" width="67.91" height="305.82"/>
    <rect class="fil4" x="211.03" y="1232.85" width="67.91" height="305.82"/>
    <g>
     <polygon class="fil1" points="449.45,1192.02 333.15,1153.27 348.17,1107.88 464.47,1146.63 "/>
    </g>
    <g>
     <polygon class="fil1" points="1300.87,1190.83 1285.85,1145.44 1402.15,1106.69 1417.17,1152.07 "/>
    </g>
    <path class="fil2 str0" d="M458.95 535.82c-196.81,12.01 -210.74,280.56 0,303.96"/>
    <path class="fil2 str0" d="M1293.36 535.82c196.82,12.01 210.74,280.56 0,303.96"/>
    <line class="fil2 str1" x1="876.07" y1="250.72" x2="877.56" y2= "374.82" />
    <path class="fil1" d="M2568.84 1114.59c0,-203.02 -13.95,-257.26 -292.9,-323.89 -162.72,-38.74 -167.37,-40.29 -167.37,-139.47 0,-75.94 23.24,-94.54 127.07,-94.54 92.98,0 168.92,9.3 286.7,29.44l23.24 -195.26c-114.68,-24.8 -223.16,-34.09 -313.04,-34.09 -283.6,0 -356.43,82.14 -356.43,288.25 0,223.16 37.19,272.75 286.7,326.99 168.92,37.19 173.57,48.04 173.57,141.02 0,86.78 -23.24,110.03 -142.57,110.03 -106.93,0 -203.02,-20.15 -297.55,-49.59l-38.74 179.77c88.33,40.3 213.86,66.64 333.19,66.64 311.5,0 378.13,-100.73 378.13,-305.29l0 -0.01z"/>
    <path id="_1_3" class="fil1" d="M3321.99 1105.29l0 -158.07c0,-164.27 -54.24,-313.04 -305.3,-313.04 -251.05,0 -323.89,139.47 -323.89,302.19l0 176.67c0,185.96 92.98,306.84 337.84,306.84 105.37,0 215.41,-23.24 283.59,-48.04l-32.54 -167.37c-66.64,20.15 -159.62,32.54 -229.36,32.54 -102.28,0 -136.37,-23.24 -136.37,-110.03l0 -21.7 406.02 0 0 0.02zm-210.76 -167.37l-195.26 0 0 -32.54c0,-52.69 24.8,-96.08 102.28,-96.08 77.48,0 92.98,43.39 92.98,96.08l0 32.54z"/>
    <path id="_2" class="fil1" d="M3907.78 844.94l-18.59 -210.76c-60.44,12.4 -156.52,57.34 -203.02,88.33l-15.5 -72.84 -185.96 0 0 754.7 223.16 0 0 -460.26c48.04,-34.09 133.28,-72.83 199.91,-99.18l0 0 0 0.01z"/>
    <polygon id="_3" class="fil1" points="4685.74,649.68 4459.48,649.68 4306.06,1184.33 4152.64,649.68 3926.38,649.68 4163.49,1404.39 4448.64,1404.39 "/>
    <path id="_4" class="fil1" d="M5384.66 1105.29l0 -158.07c0,-164.27 -54.24,-313.04 -305.3,-313.04 -251.05,0 -323.89,139.47 -323.89,302.19l0 176.67c0,185.96 92.98,306.84 337.83,306.84 105.38,0 215.41,-23.24 283.6,-48.04l-32.54 -167.37c-66.64,20.15 -159.62,32.54 -229.36,32.54 -102.28,0 -136.37,-23.24 -136.37,-110.03l0 -21.7 406.02 0 0 0.02zm-210.76 -167.37l-195.26 0 0 -32.54c0,-52.69 24.8,-96.08 102.28,-96.08 77.48,0 92.98,43.39 92.98,96.08l0 32.54z"/>
    <path id="_5" class="fil1" d="M5970.46 844.94l-18.59 -210.76c-60.44,12.4 -156.52,57.34 -203.02,88.33l-15.5 -72.84 -185.96 0 0 754.7 223.16 0 0 -460.26c48.04,-34.09 133.28,-72.83 199.91,-99.18l0 0 0 0.01z"/>
    <path id="_6" class="fil1" d="M6291.25 710.12c0,-89.89 29.44,-142.57 144.12,-142.57 74.39,0 176.67,9.3 266.55,24.8l32.54 -203.01c-102.28,-21.7 -195.26,-32.55 -299.09,-32.55 -260.35,0 -376.58,128.63 -376.58,316.15l0 430.81c0,187.52 116.23,316.14 376.58,316.14 103.83,0 196.81,-10.85 299.09,-32.54l-32.54 -203.01c-89.88,15.5 -192.17,24.8 -266.55,24.8 -114.68,0 -144.12,-52.69 -144.12,-142.57l0 -356.43 0 -0.03z"/>
    <polygon id="_7" class="fil1" points="7112.59,1404.39 7112.59,310.29 6889.44,341.28 6889.44,1404.39 "/>
    <path id="_8" class="fil1" d="M7306.3 649.68l0 528.44c0,145.67 44.94,241.76 173.57,241.76 86.78,0 207.66,-27.89 300.65,-72.83l23.24 57.34 165.82 0 0 -754.7 -223.16 0 0 499c-48.04,26.35 -122.43,54.24 -162.72,54.24 -38.74,0 -54.24,-20.15 -54.24,-54.24l0 -499 -223.16 0 0 -0.01z"/>
    <path id="_9" class="fil1" d="M8840.52 1102.2l0 -195.27c0,-168.92 -65.09,-272.75 -232.46,-272.75 -82.13,0 -153.42,18.59 -213.86,41.84l0 -365.73 -223.16 30.99 0 1053.81c103.83,17.05 226.26,24.8 306.84,24.8 311.49,0 362.63,-137.93 362.63,-317.69l0.01 0zm-446.32 -232.46c41.84,-21.69 94.54,-41.84 142.57,-41.84 58.89,0 80.59,31 80.59,80.59l0 195.26c0,71.29 -20.15,122.43 -131.73,122.43 -30.99,0 -58.89,0 -91.43,-3.1l0 -353.33 -0 -0z"/>
    <polygon id="_10" class="fil1" points="9226.4,1404.39 9226.4,1147.14 9003.24,1147.14 9003.24,1404.39 "/>
    <polygon id="_11" class="fil1" points="9651.02,1404.39 9651.02,310.29 9427.86,341.28 9427.86,1404.39 "/>
    <path id="_12" class="fil1" d="M10075.64 1404.39l0 -1094.09 -223.16 30.99 0 1063.11 223.16 0zm29.44 -379.68l201.46 379.68 238.66 0 -207.67 -379.68 198.37 -375.03 -238.66 0 -192.17 375.03 0.01 0z"/>
    <path class="fil6" d="M5277.09 1737.81l0 -246.3 46.22 0 0 246.3c0,53.59 26.51,80.38 79.53,80.38 53.02,0 79.53,-26.79 79.53,-80.38l0 -246.3 46.9 0 0 246.3c0,67.37 -42.15,101.05 -126.43,101.05 -52.57,0 -86.78,-16.65 -102.64,-49.95 -15.86,33.3 -50.07,49.95 -102.64,49.95 -84.29,0 -126.43,-33.68 -126.43,-101.05l0 -246.3 46.22 0 0 246.3c0,53.59 26.74,80.38 80.21,80.38 53.02,0 79.53,-26.79 79.53,-80.38l-0 0z"/>
    <path id="_1_4" class="fil6" d="M5703.97 1558.69c77.49,0 116.24,29.85 116.24,89.56l0 60.86 -186.25 0 0 39.61c0,46.31 23.34,69.47 70.01,69.47 46.22,0 69.33,-17.41 69.33,-52.24l46.9 0c0,48.61 -38.74,72.91 -116.24,72.91 -77.49,0 -116.23,-30.05 -116.23,-90.14l0 -100.47c0,-59.71 38.74,-89.56 116.23,-89.56l0 0zm0 20.67c-46.67,0 -70.01,22.96 -70.01,68.89l0 40.19 139.35 0 0 -40.19c0,-45.93 -23.11,-68.89 -69.33,-68.89l-0.01 0z"/>
    <path id="_2_5" class="fil6" d="M6203.57 1579.35c-42.14,0 -63.22,15.5 -63.22,46.5 0,22.96 25.83,44.59 77.49,64.88 63.44,24.5 95.16,51.29 95.16,80.37 0,45.17 -36.48,67.75 -109.44,67.75 -72.96,0 -109.44,-22.58 -109.44,-67.75l46.22 0c0,31.39 21.07,47.08 63.22,47.08 42.14,0 63.22,-15.69 63.22,-47.08 0,-22.96 -25.83,-44.4 -77.49,-64.3l-2.04 -0.57 -2.04 -1.15c-60.72,-23.73 -91.09,-50.14 -91.09,-79.23 0,-44.78 36.48,-67.17 109.44,-67.17 72.96,0 109.44,22.39 109.44,67.17l-46.22 0c0,-31 -21.07,-46.5 -63.22,-46.5l0.01 -0z"/>
    <path id="_3_6" class="fil6" d="M6488.38 1558.69c77.49,0 116.24,29.85 116.24,89.56l0 60.86 -186.25 0 0 39.61c0,46.31 23.34,69.47 70.01,69.47 46.22,0 69.33,-17.41 69.33,-52.24l46.9 0c0,48.61 -38.74,72.91 -116.24,72.91 -77.49,0 -116.23,-30.05 -116.23,-90.14l0 -100.47c0,-59.71 38.74,-89.56 116.23,-89.56l0 0zm0 20.67c-46.67,0 -70.01,22.96 -70.01,68.89l0 40.19 139.35 0 0 -40.19c0,-45.93 -23.11,-68.89 -69.33,-68.89l-0.01 0z"/>
    <path id="_4_7" class="fil6" d="M6663.07 1838.85l0 -280.17 46.22 0 0 19.52c15.86,-13.02 38.74,-19.52 68.66,-19.52l1.35 0c35.8,0 63.44,6.32 82.93,18.95l-26.51 23.54c-11.33,-14.55 -30.13,-21.82 -56.42,-21.82 -45.31,0 -68.65,22.01 -70.01,66.02l0 193.48 -46.22 0 0 0z"/>
    <path id="_5_8" class="fil6" d="M7120.53 1558.69l0 190.04c0,60.09 -38.74,90.14 -116.24,90.14 -77.49,0 -116.22,-30.05 -116.22,-90.14l0 -190.04 46.22 0 0 190.04c0,46.31 23.34,69.47 70.01,69.47 46.22,0 69.33,-23.15 69.33,-69.47l0 -190.04 46.9 0 0 0z"/>
    <path id="_6_9" class="fil6" d="M7295.22 1558.69c77.5,0 116.24,29.85 116.24,89.56l0 60.86 -186.25 0 0 39.61c0,46.31 23.34,69.47 70.01,69.47 46.23,0 69.34,-17.41 69.34,-52.24l46.9 0c0,48.61 -38.74,72.91 -116.24,72.91 -77.49,0 -116.23,-30.05 -116.23,-90.14l0 -100.47c0,-59.71 38.74,-89.56 116.23,-89.56l-0 0zm0 20.67c-46.67,0 -70.01,22.96 -70.01,68.89l0 40.19 139.35 0 0 -40.19c0,-45.93 -23.11,-68.89 -69.34,-68.89z"/>
    <path id="_7_10" class="fil6" d="M7731.61 1558.69l0 190.04c0,46.31 23.34,69.47 70.01,69.47 45.31,0 68.43,-22.01 69.33,-66.02l0 -193.48 46.9 0 0 280.17c0,60.09 -38.74,90.14 -116.24,90.14l0 -20.67c46.22,0 69.33,-23.16 69.33,-69.47l0 -20.09c-15.86,13.4 -38.97,20.09 -69.33,20.09 -77.49,0 -116.24,-30.05 -116.24,-90.14l0 -190.04 46.22 0 0.02 0z"/>
    <path id="_8_11" class="fil6" d="M7976.32 1748.72l0 -100.47c0,-59.71 38.74,-89.56 116.23,-89.56 77.49,0 116.24,29.85 116.24,89.56l0 100.47c0,60.09 -38.74,90.14 -116.24,90.14 -77.49,0 -116.23,-30.05 -116.23,-90.14zm116.23 69.47c46.22,0 69.33,-23.15 69.33,-69.47l0 -100.47c0,-45.93 -23.11,-68.89 -69.33,-68.89 -46.67,0 -70.01,22.96 -70.01,68.89l0 100.47c0,46.31 23.34,69.47 70.01,69.47z"/>
    <path id="_9_12" class="fil6" d="M8499.71 1838.85l-46.9 0 0 -20.09c-15.86,13.4 -38.97,20.09 -69.34,20.09 -77.49,0 -116.23,-30.05 -116.23,-90.14l0 -190.04 46.22 0 0 190.04c0,46.31 23.34,69.47 70.01,69.47 45.32,0 68.43,-22.01 69.34,-66.02l0 -193.48 46.9 0 0 280.17 -0 0z"/>
    <path id="_10_13" class="fil6" d="M8773.65 1648.24c0,-59.71 38.74,-89.56 116.22,-89.56l69.33 0 0 -67.17 46.9 -14.35 0 361.7 -46.9 0 0 -20.09c-15.41,13.4 -38.07,20.09 -67.98,20.09l-1.36 0c-77.48,0 -116.22,-30.05 -116.22,-90.14l0 -100.47 0.01 -0.01zm46.22 0l0 100.47c0,46.31 23.34,69.47 70.01,69.47 45.31,0 68.43,-22.01 69.33,-66.02l0 -172.81 -69.33 0c-46.67,0 -70.01,22.96 -70.01,68.89l0 0z"/>
    <path id="_11_14" class="fil6" d="M9110.79 1558.69l0 280.17 -46.22 0 0 -280.17 46.22 0zm0 -62l0 28.13 -46.22 0 0 -28.13 46.22 0z"/>
    <path id="_12_15" class="fil6" d="M9402.4 1838.85c0,60.09 -38.75,90.14 -116.24,90.14l0 -20.67c46.22,0 69.34,-23.16 69.34,-69.47l0 -20.09c-15.86,13.4 -38.98,20.09 -69.34,20.09 -77.49,0 -116.23,-30.05 -116.23,-90.14l0 -100.47c0,-59.71 38.74,-89.56 116.23,-89.56l116.24 0 0 280.17 0 -0zm-186.25 -190.61l0 100.47c0,46.31 23.34,69.47 70.01,69.47 45.32,0 68.43,-22.01 69.34,-66.02l0 -172.81 -69.34 0c-46.67,0 -70.01,22.96 -70.01,68.89l0 0z"/>
    <path id="_13" class="fil6" d="M9507.07 1558.69l0 280.17 -46.22 0 0 -280.17 46.22 0zm0 -62l0 28.13 -46.22 0 0 -28.13 46.22 0z"/>
    <path id="_14" class="fil6" d="M9543.1 1579.35l0 -20.67 23.11 0 0 -67.17 46.22 -14.35 0 81.52 119.63 0 -16.31 20.67 -103.32 0 0 169.37c0,46.31 23.34,69.47 70.01,69.47 26.28,0 45.09,-7.27 56.42,-21.81l26.51 22.96c-19.48,13.01 -47.12,19.52 -82.93,19.52 -77.49,0 -116.24,-30.05 -116.24,-90.14l0 -169.37 -23.11 0 0 0z"/>
    <path id="_15" class="fil6" d="M9791.2 1748.72c0,-59.71 38.74,-89.56 116.23,-89.56l69.33 0 0 -10.91c0,-45.93 -23.11,-68.89 -69.33,-68.89 -26.28,0 -45.09,7.27 -56.41,21.82l-26.51 -23.54c19.04,-12.63 46.67,-18.95 82.93,-18.95 77.49,0 116.24,29.85 116.24,89.56l0 190.61 -46.9 0 0 -20.09c-15.41,13.4 -38.07,20.09 -67.97,20.09l-1.36 0c-77.49,0 -116.23,-30.05 -116.23,-90.14l-0.02 0zm116.23 -68.89c-46.67,0 -70.01,22.96 -70.01,68.89 0,46.31 23.34,69.47 70.01,69.47 46.22,0 69.33,-23.15 69.33,-69.47l0 -68.89 -69.33 0z"/>
    <polygon id="_16" class="fil6" points="10128.35,1477.17 10128.35,1838.85 10082.14,1838.85 10082.14,1491.52 "/>
    <polygon id="_17" class="fil6" points="10233.7,1477.17 10233.7,1838.85 10187.48,1838.85 10187.48,1491.52 "/>
    <path id="_18" class="fil6" d="M10339.07 1558.69l0 190.04c0,46.31 23.34,69.47 70.01,69.47 45.32,0 68.43,-22.01 69.34,-66.02l0 -193.48 46.9 0 0 280.17c0,60.09 -38.74,90.14 -116.24,90.14l0 -20.67c46.23,0 69.34,-23.16 69.34,-69.47l0 -20.09c-15.86,13.4 -38.97,20.09 -69.34,20.09 -77.49,0 -116.23,-30.05 -116.23,-90.14l0 -190.04 46.22 0 -0 0z"/>
   </g>
  </g>
 </g>
</svg>
